<svg xmlns="http://www.w3.org/2000/svg" width="1240" height="1240"><path d="M0 620.001v620.001l620.25-.251 620.25-.251.251-619.75.251-619.75H0v620.001m.497.499c0 341 .114 480.649.253 310.332s.139-449.317 0-620S.497 279.5.497 620.5M1016 251.975c-23.084 1.788-49.659 10.435-68.5 22.289-23.179 14.583-37.911 33.968-44.639 58.737-2.022 7.444-2.308 10.796-2.308 26.999s.286 19.555 2.308 26.999c4.836 17.804 13.838 32.765 27.486 45.684 14.631 13.85 31.35 23.511 61.153 35.337 34.365 13.636 44.464 22.356 44.49 38.414.018 10.537-4.18 16.254-15.196 20.694-7.409 2.987-26.725 3.714-39.518 1.487-19.732-3.435-45.591-13.974-64.873-26.44-6.104-3.946-11.396-7.175-11.76-7.175-.364 0-.546 21.223-.403 47.161l.26 47.162 11.5 3.888c28.393 9.599 55.118 13.794 87.788 13.78 28.269-.012 48.479-2.545 69.212-8.675 35.756-10.573 62.397-33.626 73.747-63.816 4.972-13.224 6.564-23.799 6.016-39.955-.561-16.518-2.826-26.517-8.753-38.647-13.189-26.989-35.032-43.693-87.51-66.922-32.804-14.52-40.234-19.287-43.949-28.194-1.79-4.291-2.031-12.38-.49-16.467 1.804-4.783 6.964-9.134 14.866-12.535l7.573-3.259 17.5.05c15.183.043 19.089.403 29.5 2.719 14.598 3.247 31.298 9.082 43.42 15.17 4.972 2.497 9.274 4.54 9.56 4.54.286 0 .52-19.723.52-43.828v-43.828l-13.75-3.212c-17.981-4.201-27.243-5.777-44.759-7.616-14.596-1.533-44.257-1.798-60.491-.541M465 430.5V603h104V481.856l5.75.662c12.691 1.462 23.616 9.321 33.055 23.781 5.795 8.877 8.882 16.697 24.65 62.451L644.259 603h58.37c32.104 0 58.371-.202 58.371-.449 0-1.387-35.959-92.567-39.545-100.273-8.292-17.817-20.04-33.083-31.551-40.999-5.375-3.696-17.06-9.627-22.154-11.244-2.062-.654-3.75-1.343-3.75-1.53 0-.187 4.388-1.791 9.75-3.564 36.622-12.111 59.778-34.954 67.856-66.941 1.514-5.996 1.891-11.111 1.881-25.5-.011-15.738-.301-19.005-2.302-26-10.538-36.823-40.15-57.601-92.685-65.035-17.688-2.503-48.65-3.403-118.25-3.435L465 258v172.5m314 0V603h104V258H779v172.5m-656 2V605h104V477h119v128h104V260H346v128H227V260H123v172.5m446-63.157V409l14.25-.012c14.655-.012 20.32-.935 28.818-4.694 6.425-2.842 15.426-11.976 18.71-18.985 2.468-5.267 2.722-6.882 2.722-17.309 0-10.323-.267-12.063-2.609-17-1.436-3.025-4.273-7.191-6.307-9.258-7.774-7.904-16.788-10.519-39.334-11.412l-16.25-.644v39.657" fill="undefined" fill-rule="evenodd"/></svg>